<?xml version="1.0" encoding="UTF-8"?><svg id="Layer_2" xmlns="http://www.w3.org/2000/svg" xmlns:xlink="http://www.w3.org/1999/xlink" viewBox="0 0 279.35 193.74"><defs><style>.cls-1{fill:#fff;}.cls-2{fill:url(#linear-gradient);}</style><linearGradient id="linear-gradient" x1="0" y1="130.2" x2="279.35" y2="130.2" gradientUnits="userSpaceOnUse"><stop offset="0" stop-color="#81d0d4"/><stop offset="1" stop-color="#575fab"/></linearGradient></defs><g id="Layer_1-2"><g><path class="cls-1" d="M47.06,107.12c.07,.29,.07,.5,.07,.78v.29c0,1.43-.37,2.71-.9,4-.52,1.21-1.12,2.35-1.79,3.42-1.27,2.14-3.51,4.85-6.05,7.56-2.99,3.14-6.35,6.28-8.81,8.27-3.06,2.43-6.35,4.78-9.86,5.99-1.49,.5-2.99,.86-4.63,.86-2.24,0-4.63-.64-7.1-2.14-3.29-1.93-5.53-4.71-6.8-7.85-.82-2-1.2-4.07-1.2-6.21,0-1.5,.15-2.92,.52-4.42,.52-2.07,1.27-4,2.24-5.78,.97-1.85,2.02-3.57,3.21-5.28,.75-1.14,1.49-2.21,2.32-3.35,.82-1.07,1.72-2.14,2.69-3.14,.15-.14,.22-.29,.22-.29,0-.07-.07-.14-.22-.36-.37-.5-.82-1.07-1.27-1.71-.37-.57-.75-1.21-1.12-1.85-.9-2-1.27-3.85-1.27-5.71v-.5c.15-2.14,.9-4.21,2.02-6.28,1.94-3.35,4.33-6.21,7.17-8.56,2.91-2.5,6.35-4.49,10.08-6.13,1.72-.71,3.59-1.28,5.45-1.57,1.12-.21,2.32-.29,3.36-.29,1.57,0,2.99,.21,4.33,.64,2.39,.86,4.41,2.43,5.6,5.06,.37,.86,.67,1.85,.9,2.92,.07,.21,.07,.43,.07,.71,0,.57-.15,1.21-.37,1.71-.37,.79-.97,1.43-1.79,1.71-.22,.07-.45,.07-.67,.07-.67,0-1.42-.21-2.09-.64-.82-.5-1.64-1.21-1.87-2-.15-.29-.15-.57-.22-.93,0-.07,.07-.14,.07-.14v-.07c-.07-.07-.22-.07-.3-.07-.3,0-.67,.07-.97,.14l-.3,.07c-2.09,.5-4.11,1.14-6.05,2.07-1.94,.86-3.73,1.93-5.53,3.07-2.32,1.5-4.93,3.85-6.95,6.49-1.79,2.21-3.14,4.64-3.66,6.85-.07,.43-.07,.71-.07,.78,.07,.07,.22,.07,.52,.07h.37c.9-.07,1.64-.21,2.32-.43,.82-.21,1.64-.5,2.46-.5,1.49,0,3.21,.86,5.68,3.78,.82,.93,1.2,1.78,1.2,2.5,0,.14,0,.36-.07,.5-.3,.93-1.12,1.57-2.69,2-.15,.07-.37,.14-.6,.21-.45,.14-.9,.29-1.42,.36-1.05,.14-1.87,.5-2.61,1-.82,.5-1.49,1.21-2.17,1.93-1.57,1.85-3.06,3.71-4.41,5.64-1.34,1.93-2.54,3.92-3.58,5.99-.9,1.71-1.42,3.35-1.64,5.14-.07,.71-.15,1.43-.15,2.21,0,1,.07,2.07,.22,3.14,.15,.78,.37,1.28,.75,1.5,.15,.07,.37,.14,.67,.14s.67-.07,1.12-.21c3.66-1.07,9.78-4.92,15.76-9.34,7.02-5.14,13.74-10.99,16.13-14.12,.22-.29,.45-.57,.82-.78,.3-.14,.6-.29,.97-.29,.3,0,.52,.07,.82,.21,.6,.29,.9,.64,1.05,1.14Zm10.83,14.62c1.19-.43,1.34-1.57,1.34-2.71v-1.35c-.07-1.28-.15-2.64-.15-4,0-13.48,3.81-28.46,6.35-41.37v-.07c0-2.14-4.26-5.06-6.65-5.06h-.37c-.75,.14-.97,.57-1.12,1.14-2.76,8.99-6.57,30.03-6.57,42.02,0,2.28,.15,4.14,.45,5.64,.37,1.71,1.19,3.21,2.24,4.57,.67,.71,2.46,1.36,3.66,1.36,.3,0,.6-.07,.82-.14Zm7.02-14.27c0-4.49,1.57-8.85,3.88-13.13,1.72-3.14,4.26-5.49,7.17-7.56,2.84-2.07,5.53-2.92,7.84-2.92,5.53,0,9.11,4.78,9.11,9.7,0,5.21-4.11,10.56-14.49,10.56-1.49,0-3.21-.07-5.08-.36-1.05,3.64-1.42,5.28-1.42,7.13,0,.86,.07,1.85,.22,3.14,.3,3.14,1.72,4.28,3.66,4.28,4.71,0,12.4-6.85,14.79-8.42,.22-.14,.52-.43,.82-.43,.07,0,.22,.07,.37,.21s.22,.29,.22,.5-.07,.5-.15,.71c-.67,2.85-4.26,9.99-10.08,12.27-1.12,.64-2.24,.93-3.44,.93-.97,0-1.94-.14-2.91-.43-4.41-1.21-7.02-4.21-8.74-8.06-1.27-2.78-1.79-5.49-1.79-8.13Zm12.47-9.63c0,.14,0,.21,.07,.29,.22,.36,.6,.5,1.05,.5,.37,0,.82-.14,1.2-.14,3.58-.29,7.02-2.5,9.04-5.28,.15-.36,.22-.64,.22-.86,0-.71-.52-1.14-1.49-1.14-.3,0-.6,.07-.9,.14s-.6,.14-.82,.21c-1.79,.43-8.37,4.57-8.37,6.28Zm58.93,18.48c1.57-4.92,3.29-17.48,3.96-22.83,.08-.57,.15-1.07,.15-1.57,0-1.85-.82-2.71-3.14-3.78-1.42-.64-2.46-1.21-3.29-1.21-.9,0-1.64,.57-2.54,2.28-1.87,3.5-3.51,7.06-5.53,10.49-1.64,2.85-2.99,5.78-4.41,8.7v-.5c0-2.57,1.72-10.7,2.09-13.13,0-.21,.07-.5,.07-.71,0-1.14-.52-2.07-1.49-2.85-1.05-.86-2.32-1.43-3.66-1.78-.45-.14-.82-.21-1.12-.21-1.27,0-1.87,.86-2.99,2.64,0,0-8.37,14.05-10.16,15.05,.9-3.42,1.49-7.28,2.02-10.77,0-.29,.07-.5,.07-.78,0-3.14-2.61-5.64-5.9-5.78h-.3c-1.42,0-2.17,.57-2.24,2-.37,6.92-2.99,17.19-4.41,24.18-.07,.43-.15,.78-.15,1.21,0,1.43,.75,2.57,2.09,3.57,.97,.64,2.09,1.07,3.21,1.36,.6,.21,1.12,.29,1.57,.29,.82,0,1.42-.43,2.17-1.57,1.2-1.93,2.39-3.85,3.51-5.85,.82-1.64,6.27-11.41,7.47-12.27,.07,.07,.07,.29,.07,.64,0,2.28-1.64,9.92-1.87,11.48,0,.29-.07,.64-.07,.93,0,2.78,1.57,4.64,4.71,5.42,.45,.14,.9,.14,1.19,.14,.6,0,1.05-.14,1.42-.43,1.34-1.07,8.74-14.7,10.53-18.33,.15,.21,.22,.43,.22,.57,0,.29-.07,.5-.15,.78-.67,2.85-1.12,5.71-1.49,8.7,0,.29-.07,.64-.07,.93,0,1.78,.6,3.21,2.17,4.14,1.05,.57,2.17,1,3.29,1,1.34,0,2.46-.64,2.99-2.14Zm9.19-.71c-1.27-2.78-1.79-5.49-1.79-8.13,0-4.49,1.57-8.85,3.88-13.13,1.72-3.14,4.26-5.49,7.17-7.56,2.84-2.07,5.53-2.92,7.84-2.92,5.53,0,9.11,4.78,9.11,9.7,0,5.21-4.11,10.56-14.49,10.56-1.49,0-3.21-.07-5.08-.36-1.05,3.64-1.42,5.28-1.42,7.13,0,.86,.07,1.85,.22,3.14,.3,3.14,1.72,4.28,3.66,4.28,4.71,0,12.4-6.85,14.79-8.42,.22-.14,.52-.43,.82-.43,.08,0,.22,.07,.37,.21s.22,.29,.22,.5-.07,.5-.15,.71c-.67,2.85-4.26,9.99-10.08,12.27-1.12,.64-2.24,.93-3.44,.93-.97,0-1.94-.14-2.91-.43-4.41-1.21-7.02-4.21-8.74-8.06Zm10.68-17.76c0,.14,0,.21,.08,.29,.22,.36,.6,.5,1.04,.5,.37,0,.82-.14,1.2-.14,3.58-.29,7.02-2.5,9.04-5.28,.15-.36,.22-.64,.22-.86,0-.71-.52-1.14-1.49-1.14-.3,0-.6,.07-.9,.14s-.6,.14-.82,.21c-1.79,.43-8.37,4.57-8.37,6.28Zm22.18,23.04c.37,.14,.82,.21,1.27,.21s.9-.14,1.2-.5c5-6.85,8.59-13.34,13.37-19.9,.15,.07,.3,.07,.52,.14-.15,.93-.3,1.93-.45,2.85-.75,3.78-1.42,7.63-2.24,11.41-.08,.57-.15,1.14-.15,1.64,0,1,.15,1.93,.6,2.85,.6,1.43,2.24,2.28,4.56,2.78h.37c1.64-.14,2.31-1.21,3.06-2.57,1.12-2,1.64-3.71,2.02-5.49,1.27-6.42,1.87-13.34,3.21-19.76,0-.14,.08-.29,.08-.43,0-2.43-3.66-4.85-6.42-5.28-.52-.21-.97-.29-1.34-.29-.67,0-1.12,.43-1.57,1.43-1.34,2.85-10.31,15.98-11.43,15.98,0-.14,2.09-11.77,2.17-12.2,.08-.5,.15-.93,.15-1.35,0-3.42-3.06-4.92-7.1-4.78-1.05,0-1.64,.29-1.79,1.36-.6,4.49-4.03,21.69-5.23,25.68-.22,.64-.3,1.21-.3,1.78,0,2.64,2.17,3.99,5.45,4.42Zm57.14-39.38h1.34c.6,0,1.12-.14,1.42-.71,.07-.21,.15-.43,.15-.64,0-1.07-.82-2.28-2.17-2.28h-.22c-2.17-.14-7.25-.5-7.25-2.78v-.07c0-.29,.08-.57,.08-.86,0-5.21-4.63-7.49-7.25-7.49-1.05,0-1.72,.36-1.72,1v.57c0,3-1.27,9.2-4.48,9.84-2.61,.57-5.23,1.5-7.92,1.71-.6,.07-.9,.29-.9,.71,0,.21,.08,.43,.22,.64,1.42,2.43,3.88,3.78,7.1,3.78h.37c.6,0,.97,.36,.97,.93,0,.14,0,.29-.08,.43-.07,.36-.15,.71-.3,1-1.34,4.07-4.71,22.76-4.71,29.03v1c.3,2.78,3.29,4.78,5.97,5.49,.6,.14,1.05,.21,1.42,.21,.97,0,1.27-.57,1.57-2.07,1.94-11.98,2.69-25.75,7.39-37.17,.45-.93,.97-1.28,1.94-1.43,2.32-.36,4.63-.86,7.02-.86Zm25.02,13.77c.82,.78,1.12,1.5,1.12,2.43,0,.29,0,.57-.07,.86-1.79,7.49-5,15.05-5.38,22.9-.08,1-.22,2.21-1.42,2.64-.3,.14-.67,.14-.97,.14-.82,0-1.64-.36-2.32-.93-2.24-1.85-2.84-4.35-3.06-6.99v-4.21c-1.87,2.92-5.83,7.85-8.89,9.63-.82,.5-1.72,.71-2.54,.71-1.19,0-2.39-.43-3.51-1-4.03-2.21-5.98-5.64-5.98-10.06v-.21c.15-7.2,2.46-13.62,7.32-19.19,1.12-1.21,2.46-2.21,3.81-3.14,1.72-1.14,3.36-1.57,5-1.57,2.39,0,4.71,.93,7.02,2.14,2.99,1.5,7.77,3.85,9.86,5.85Zm-9.49,.36c0-.21-.07-.5-.37-.78-.67-.71-1.34-1-1.94-1-1.49,0-2.99,1.5-4.33,2.78-3.81,3.71-6.27,8.27-7.69,13.27-.37,1.14-.67,2.43-.67,3.78v.43c1.27-.21,12.4-15.12,14.49-17.41,.3-.36,.52-.64,.52-1.07Zm28.31-23.4c0-2.14-4.26-5.06-6.65-5.06h-.37c-.75,.14-.97,.57-1.12,1.14-2.76,8.99-6.57,30.03-6.57,42.02,0,2.28,.15,4.14,.45,5.64,.37,1.71,1.2,3.21,2.24,4.57,.67,.71,2.46,1.36,3.66,1.36,.3,0,.6-.07,.82-.14,1.2-.43,1.34-1.57,1.34-2.71v-1.35c-.08-1.28-.15-2.64-.15-4,0-13.48,3.81-28.46,6.35-41.37v-.07ZM100.2,139.52c-1.49-1-3.21-1.5-4.85-2-.37-.14-.67-.14-.9-.14-.75,0-1.12,.43-1.64,1.36-3.96,6.71-7.77,12.63-11.2,19.62-1.49-4.57-1.64-9.42-2.91-13.62-1.34-4.28-5.38-7.7-9.71-8.06-.37-.07-.67-.07-.97-.07-1.34,0-1.72,.5-1.87,2.21-.3,3-1.34,5.78-2.24,8.56-1.57,5.42-8.51,28.82-9.11,38.88-.07,.79-.07,1.57-.07,2.21,0,3.42,.82,5.28,4.93,5.28,.52,0,1.05,0,1.57-.07,1.49-.07,1.49-1.57,1.72-2.64,.6-2.14,.97-4.42,1.57-6.56,.52-1.78,6.5-27.46,6.57-27.53,.22,.93,.37,1.71,.6,2.43,.67,2.78,1.34,5.56,2.24,8.35,1.05,3,4.63,4.99,7.84,4.99,.3,0,.67,0,.97-.07,1.05-.14,1.42-.64,1.42-1.5l-.22-1.71c-.07-.29-.07-.57-.07-.86,0-.5,.07-.93,.3-1.43,2.39-5.35,4.41-10.84,7.62-16.26,0,.07,.07,.21,.07,.5,0,3.07-2.69,18.4-3.14,20.83-.52,2.71-.9,9.13-.9,11.91v.21c0,2.07,.97,3.64,2.84,4.71,1.34,.71,2.84,1.14,4.41,1.36,.22,0,.52,.07,.67,.07,1.27,0,1.72-.57,1.94-2.07,.15-1.57,.07-3.07,.22-4.64,1.05-15.12,4.41-27.39,5.08-38.38v-.57c0-2.21-.82-4-2.76-5.28Zm13.37,33.24c-1.05,3.64-1.42,5.28-1.42,7.13,0,.86,.07,1.85,.22,3.14,.3,3.14,1.72,4.28,3.66,4.28,4.71,0,12.4-6.85,14.79-8.42,.22-.14,.52-.43,.82-.43,.07,0,.22,.07,.37,.21s.22,.29,.22,.5-.07,.5-.15,.71c-.67,2.85-4.26,9.99-10.08,12.27-1.12,.64-2.24,.93-3.44,.93-.97,0-1.94-.14-2.91-.43-4.41-1.21-7.02-4.21-8.74-8.06-1.27-2.78-1.79-5.49-1.79-8.13,0-4.49,1.57-8.85,3.88-13.13,1.72-3.14,4.26-5.49,7.17-7.56,2.84-2.07,5.53-2.92,7.84-2.92,5.53,0,9.11,4.78,9.11,9.7,0,5.21-4.11,10.56-14.49,10.56-1.49,0-3.21-.07-5.08-.36Zm4.03-5.92c0,.14,0,.21,.07,.29,.22,.36,.6,.5,1.05,.5,.37,0,.82-.14,1.2-.14,3.58-.29,7.02-2.5,9.04-5.28,.15-.36,.22-.64,.22-.86,0-.71-.52-1.14-1.49-1.14-.3,0-.6,.07-.9,.14s-.6,.14-.82,.21c-1.79,.43-8.37,4.57-8.37,6.28Zm54-25.61c-.82,4.42-2.76,13.05-8.07,42.87l-.52,4.49c-.15,1.21-.9,1.78-2.09,1.78-.15,0-.3,0-.52-.07-2.46-.36-4.11-2.07-4.56-4.64-.3-1.21-.52-2.5-.67-3.71-2.32,3.5-4.78,9.49-9.41,9.49-.75,0-1.49-.14-2.39-.43-4.03-1.5-6.95-4.28-7.84-8.56-.22-1-.3-2-.3-2.92,0-1.43,.15-2.78,.52-4.07,1.57-7.06,4.11-13.7,8.96-19.47,1.05-1.21,2.17-2.21,3.58-3.07,1.42-.93,3.44-1.43,5.45-1.43,2.17,0,4.33,.57,5.6,1.78l4.93-17.98c.37-1,.82-1.5,1.64-1.5,.22,0,.52,0,.9,.14,2.61,.71,4.86,3.71,4.86,6.42,0,.29,0,.57-.08,.86Zm-13.82,17.76c0-.64-.67-1.14-1.42-1.14-.22,0-.45,.07-.6,.14-2.76,1.5-5.75,7.2-7.1,9.84-2.17,4.49-3.51,9.27-4.41,14.12-.07,.29-.15,.64-.15,1s.08,.71,.3,1.14c5.9-6.71,11.43-16.34,13.29-24.9l.08-.21Zm19.57-5.14c-.6-.14-1.05-.29-1.42-.21-.97,.07-1.42,.78-1.34,2.14,.15,3-4.11,19.55-4.63,25.25-.15,1.5-.37,3.35-.22,5.06,.07,1.85,.6,3.57,2.02,4.71,1.87,1.5,3.14,2.07,4.03,2,1.79-.14,2.32-2.57,2.76-5.49,1.57-9.13,3.58-18.26,4.56-27.39v-.93c-.22-2.85-3.06-4.21-5.75-5.14Zm6.57-9.35c-.67-1.78-3.96-4.07-5.83-4.07h-.3c-.9,.07-1.34,.5-1.42,1.5-.15,2.21-.15,4.35-.15,5.99,.22,3.42,1.04,4.35,3.58,4.57h.45c.75-.07,1.34-.29,1.79-1.07,.9-1.64,1.57-3.28,2.09-5.06,0-.29,.08-.57,0-.86,0-.36-.07-.71-.22-1Zm34.58,19.76c.82,.78,1.12,1.5,1.12,2.43,0,.29,0,.57-.07,.86-1.79,7.49-5,15.05-5.38,22.9-.08,1-.22,2.21-1.42,2.64-.3,.14-.67,.14-.97,.14-.82,0-1.64-.36-2.32-.93-2.24-1.85-2.84-4.35-3.06-6.99v-4.21c-1.87,2.92-5.83,7.85-8.89,9.63-.82,.5-1.72,.71-2.54,.71-1.2,0-2.39-.43-3.51-1-4.03-2.21-5.98-5.64-5.98-10.06v-.21c.15-7.2,2.46-13.62,7.32-19.19,1.12-1.21,2.46-2.21,3.81-3.14,1.72-1.14,3.36-1.57,5-1.57,2.39,0,4.71,.93,7.02,2.14,2.99,1.5,7.77,3.85,9.86,5.85Zm-9.49,.36c0-.21-.07-.5-.37-.78-.67-.71-1.34-1-1.94-1-1.49,0-2.99,1.5-4.33,2.78-3.81,3.71-6.27,8.27-7.69,13.27-.37,1.14-.67,2.43-.67,3.78v.43c1.27-.21,12.4-15.12,14.49-17.41,.3-.36,.52-.64,.52-1.07Z"/><path class="cls-2" d="M47.06,107.12c.07,.29,.07,.5,.07,.78v.29c0,1.43-.37,2.71-.9,4-.52,1.21-1.12,2.35-1.79,3.42-1.27,2.14-3.51,4.85-6.05,7.56-2.99,3.14-6.35,6.28-8.81,8.27-3.06,2.43-6.35,4.78-9.86,5.99-1.49,.5-2.99,.86-4.63,.86-2.24,0-4.63-.64-7.1-2.14-3.29-1.93-5.53-4.71-6.8-7.85-.82-2-1.2-4.07-1.2-6.21,0-1.5,.15-2.92,.52-4.42,.52-2.07,1.27-4,2.24-5.78,.97-1.85,2.02-3.57,3.21-5.28,.75-1.14,1.49-2.21,2.32-3.35,.82-1.07,1.72-2.14,2.69-3.14,.15-.14,.22-.29,.22-.29,0-.07-.07-.14-.22-.36-.37-.5-.82-1.07-1.27-1.71-.37-.57-.75-1.21-1.12-1.85-.9-2-1.27-3.85-1.27-5.71v-.5c.15-2.14,.9-4.21,2.02-6.28,1.94-3.35,4.33-6.21,7.17-8.56,2.91-2.5,6.35-4.49,10.08-6.13,1.72-.71,3.59-1.28,5.45-1.57,1.12-.21,2.32-.29,3.36-.29,1.57,0,2.99,.21,4.33,.64,2.39,.86,4.41,2.43,5.6,5.06,.37,.86,.67,1.85,.9,2.92,.07,.21,.07,.43,.07,.71,0,.57-.15,1.21-.37,1.71-.37,.79-.97,1.43-1.79,1.71-.22,.07-.45,.07-.67,.07-.67,0-1.42-.21-2.09-.64-.82-.5-1.64-1.21-1.87-2-.15-.29-.15-.57-.22-.93,0-.07,.07-.14,.07-.14v-.07c-.07-.07-.22-.07-.3-.07-.3,0-.67,.07-.97,.14l-.3,.07c-2.09,.5-4.11,1.14-6.05,2.07-1.94,.86-3.73,1.93-5.53,3.07-2.32,1.5-4.93,3.85-6.95,6.49-1.79,2.21-3.14,4.64-3.66,6.85-.07,.43-.07,.71-.07,.78,.07,.07,.22,.07,.52,.07h.37c.9-.07,1.64-.21,2.32-.43,.82-.21,1.64-.5,2.46-.5,1.49,0,3.21,.86,5.68,3.78,.82,.93,1.2,1.78,1.2,2.5,0,.14,0,.36-.07,.5-.3,.93-1.12,1.57-2.69,2-.15,.07-.37,.14-.6,.21-.45,.14-.9,.29-1.42,.36-1.05,.14-1.87,.5-2.61,1-.82,.5-1.49,1.21-2.17,1.93-1.57,1.85-3.06,3.71-4.41,5.64-1.34,1.93-2.54,3.92-3.58,5.99-.9,1.71-1.42,3.35-1.64,5.14-.07,.71-.15,1.43-.15,2.21,0,1,.07,2.07,.22,3.14,.15,.78,.37,1.28,.75,1.5,.15,.07,.37,.14,.67,.14s.67-.07,1.12-.21c3.66-1.07,9.78-4.92,15.76-9.34,7.02-5.14,13.74-10.99,16.13-14.12,.22-.29,.45-.57,.82-.78,.3-.14,.6-.29,.97-.29,.3,0,.52,.07,.82,.21,.6,.29,.9,.64,1.05,1.14Zm10.83,14.62c1.19-.43,1.34-1.57,1.34-2.71v-1.35c-.07-1.28-.15-2.64-.15-4,0-13.48,3.81-28.46,6.35-41.37v-.07c0-2.14-4.26-5.06-6.65-5.06h-.37c-.75,.14-.97,.57-1.12,1.14-2.76,8.99-6.57,30.03-6.57,42.02,0,2.28,.15,4.14,.45,5.64,.37,1.71,1.19,3.21,2.24,4.57,.67,.71,2.46,1.36,3.66,1.36,.3,0,.6-.07,.82-.14Zm7.02-14.27c0-4.49,1.57-8.85,3.88-13.13,1.72-3.14,4.26-5.49,7.17-7.56,2.84-2.07,5.53-2.92,7.84-2.92,5.53,0,9.11,4.78,9.11,9.7,0,5.21-4.11,10.56-14.49,10.56-1.49,0-3.21-.07-5.08-.36-1.05,3.64-1.42,5.28-1.42,7.13,0,.86,.07,1.85,.22,3.14,.3,3.14,1.72,4.28,3.66,4.28,4.71,0,12.4-6.85,14.79-8.42,.22-.14,.52-.43,.82-.43,.07,0,.22,.07,.37,.21s.22,.29,.22,.5-.07,.5-.15,.71c-.67,2.85-4.26,9.99-10.08,12.27-1.12,.64-2.24,.93-3.44,.93-.97,0-1.94-.14-2.91-.43-4.41-1.21-7.02-4.21-8.74-8.06-1.27-2.78-1.79-5.49-1.79-8.13Zm12.47-9.63c0,.14,0,.21,.07,.29,.22,.36,.6,.5,1.05,.5,.37,0,.82-.14,1.2-.14,3.58-.29,7.02-2.5,9.04-5.28,.15-.36,.22-.64,.22-.86,0-.71-.52-1.14-1.49-1.14-.3,0-.6,.07-.9,.14s-.6,.14-.82,.21c-1.79,.43-8.37,4.57-8.37,6.28Zm58.93,18.48c1.57-4.92,3.29-17.48,3.96-22.83,.08-.57,.15-1.07,.15-1.57,0-1.85-.82-2.71-3.14-3.78-1.42-.64-2.46-1.21-3.29-1.21-.9,0-1.64,.57-2.54,2.28-1.87,3.5-3.51,7.06-5.53,10.49-1.64,2.85-2.99,5.78-4.41,8.7v-.5c0-2.57,1.72-10.7,2.09-13.13,0-.21,.07-.5,.07-.71,0-1.14-.52-2.07-1.49-2.85-1.05-.86-2.32-1.43-3.66-1.78-.45-.14-.82-.21-1.12-.21-1.27,0-1.87,.86-2.99,2.64,0,0-8.37,14.05-10.16,15.05,.9-3.42,1.49-7.28,2.02-10.77,0-.29,.07-.5,.07-.78,0-3.14-2.61-5.64-5.9-5.78h-.3c-1.42,0-2.17,.57-2.24,2-.37,6.92-2.99,17.19-4.41,24.18-.07,.43-.15,.78-.15,1.21,0,1.43,.75,2.57,2.09,3.57,.97,.64,2.09,1.07,3.21,1.36,.6,.21,1.12,.29,1.57,.29,.82,0,1.42-.43,2.17-1.57,1.2-1.93,2.39-3.85,3.51-5.85,.82-1.64,6.27-11.41,7.47-12.27,.07,.07,.07,.29,.07,.64,0,2.28-1.64,9.92-1.87,11.48,0,.29-.07,.64-.07,.93,0,2.78,1.57,4.64,4.71,5.42,.45,.14,.9,.14,1.19,.14,.6,0,1.05-.14,1.42-.43,1.34-1.07,8.74-14.7,10.53-18.33,.15,.21,.22,.43,.22,.57,0,.29-.07,.5-.15,.78-.67,2.85-1.12,5.71-1.49,8.7,0,.29-.07,.64-.07,.93,0,1.78,.6,3.21,2.17,4.14,1.05,.57,2.17,1,3.29,1,1.34,0,2.46-.64,2.99-2.14Zm9.19-.71c-1.27-2.78-1.79-5.49-1.79-8.13,0-4.49,1.57-8.85,3.88-13.13,1.72-3.14,4.26-5.49,7.17-7.56,2.84-2.07,5.53-2.92,7.84-2.92,5.53,0,9.11,4.78,9.11,9.7,0,5.21-4.11,10.56-14.49,10.56-1.49,0-3.21-.07-5.08-.36-1.05,3.64-1.42,5.28-1.42,7.13,0,.86,.07,1.85,.22,3.14,.3,3.14,1.72,4.28,3.66,4.28,4.71,0,12.4-6.85,14.79-8.42,.22-.14,.52-.43,.82-.43,.08,0,.22,.07,.37,.21s.22,.29,.22,.5-.07,.5-.15,.71c-.67,2.85-4.26,9.99-10.08,12.27-1.12,.64-2.24,.93-3.44,.93-.97,0-1.94-.14-2.91-.43-4.41-1.21-7.02-4.21-8.74-8.06Zm10.68-17.76c0,.14,0,.21,.08,.29,.22,.36,.6,.5,1.04,.5,.37,0,.82-.14,1.2-.14,3.58-.29,7.02-2.5,9.04-5.28,.15-.36,.22-.64,.22-.86,0-.71-.52-1.14-1.49-1.14-.3,0-.6,.07-.9,.14s-.6,.14-.82,.21c-1.79,.43-8.37,4.57-8.37,6.28Zm22.18,23.04c.37,.14,.82,.21,1.27,.21s.9-.14,1.2-.5c5-6.85,8.59-13.34,13.37-19.9,.15,.07,.3,.07,.52,.14-.15,.93-.3,1.93-.45,2.85-.75,3.78-1.42,7.63-2.24,11.41-.08,.57-.15,1.14-.15,1.64,0,1,.15,1.93,.6,2.85,.6,1.43,2.24,2.28,4.56,2.78h.37c1.64-.14,2.31-1.21,3.06-2.57,1.12-2,1.64-3.71,2.02-5.49,1.27-6.42,1.87-13.34,3.21-19.76,0-.14,.08-.29,.08-.43,0-2.43-3.66-4.85-6.42-5.28-.52-.21-.97-.29-1.34-.29-.67,0-1.12,.43-1.57,1.43-1.34,2.85-10.31,15.98-11.43,15.98,0-.14,2.09-11.77,2.17-12.2,.08-.5,.15-.93,.15-1.35,0-3.42-3.06-4.92-7.1-4.78-1.05,0-1.64,.29-1.79,1.36-.6,4.49-4.03,21.69-5.23,25.68-.22,.64-.3,1.21-.3,1.78,0,2.64,2.17,3.99,5.45,4.42Zm57.14-39.38h1.34c.6,0,1.12-.14,1.42-.71,.07-.21,.15-.43,.15-.64,0-1.07-.82-2.28-2.17-2.28h-.22c-2.17-.14-7.25-.5-7.25-2.78v-.07c0-.29,.08-.57,.08-.86,0-5.21-4.63-7.49-7.25-7.49-1.05,0-1.72,.36-1.72,1v.57c0,3-1.27,9.2-4.48,9.84-2.61,.57-5.23,1.5-7.92,1.71-.6,.07-.9,.29-.9,.71,0,.21,.08,.43,.22,.64,1.42,2.43,3.88,3.78,7.1,3.78h.37c.6,0,.97,.36,.97,.93,0,.14,0,.29-.08,.43-.07,.36-.15,.71-.3,1-1.34,4.07-4.71,22.76-4.71,29.03v1c.3,2.78,3.29,4.78,5.97,5.49,.6,.14,1.05,.21,1.42,.21,.97,0,1.27-.57,1.57-2.07,1.94-11.98,2.69-25.75,7.39-37.17,.45-.93,.97-1.28,1.94-1.43,2.32-.36,4.63-.86,7.02-.86Zm25.02,13.77c.82,.78,1.12,1.5,1.12,2.43,0,.29,0,.57-.07,.86-1.79,7.49-5,15.05-5.38,22.9-.08,1-.22,2.21-1.42,2.64-.3,.14-.67,.14-.97,.14-.82,0-1.64-.36-2.32-.93-2.24-1.85-2.84-4.35-3.06-6.99v-4.21c-1.87,2.92-5.83,7.85-8.89,9.63-.82,.5-1.72,.71-2.54,.71-1.19,0-2.39-.43-3.51-1-4.03-2.21-5.98-5.64-5.98-10.06v-.21c.15-7.2,2.46-13.62,7.32-19.19,1.12-1.21,2.46-2.21,3.81-3.14,1.72-1.14,3.36-1.57,5-1.57,2.39,0,4.71,.93,7.02,2.14,2.99,1.5,7.77,3.85,9.86,5.85Zm-9.49,.36c0-.21-.07-.5-.37-.78-.67-.71-1.34-1-1.94-1-1.49,0-2.99,1.5-4.33,2.78-3.81,3.71-6.27,8.27-7.69,13.27-.37,1.14-.67,2.43-.67,3.78v.43c1.27-.21,12.4-15.12,14.49-17.41,.3-.36,.52-.64,.52-1.07Zm28.31-23.4c0-2.14-4.26-5.06-6.65-5.06h-.37c-.75,.14-.97,.57-1.12,1.14-2.76,8.99-6.57,30.03-6.57,42.02,0,2.28,.15,4.14,.45,5.64,.37,1.71,1.2,3.21,2.24,4.57,.67,.71,2.46,1.36,3.66,1.36,.3,0,.6-.07,.82-.14,1.2-.43,1.34-1.57,1.34-2.71v-1.35c-.08-1.28-.15-2.64-.15-4,0-13.48,3.81-28.46,6.35-41.37v-.07ZM100.2,139.52c-1.49-1-3.21-1.5-4.85-2-.37-.14-.67-.14-.9-.14-.75,0-1.12,.43-1.64,1.36-3.96,6.71-7.77,12.63-11.2,19.62-1.49-4.57-1.64-9.42-2.91-13.62-1.34-4.28-5.38-7.7-9.71-8.06-.37-.07-.67-.07-.97-.07-1.34,0-1.72,.5-1.87,2.21-.3,3-1.34,5.78-2.24,8.56-1.57,5.42-8.51,28.82-9.11,38.88-.07,.79-.07,1.57-.07,2.21,0,3.42,.82,5.28,4.93,5.28,.52,0,1.05,0,1.57-.07,1.49-.07,1.49-1.57,1.72-2.64,.6-2.14,.97-4.42,1.57-6.56,.52-1.78,6.5-27.46,6.57-27.53,.22,.93,.37,1.71,.6,2.43,.67,2.78,1.34,5.56,2.24,8.35,1.05,3,4.63,4.99,7.84,4.99,.3,0,.67,0,.97-.07,1.05-.14,1.42-.64,1.42-1.5l-.22-1.71c-.07-.29-.07-.57-.07-.86,0-.5,.07-.93,.3-1.43,2.39-5.35,4.41-10.84,7.62-16.26,0,.07,.07,.21,.07,.5,0,3.07-2.69,18.4-3.14,20.83-.52,2.71-.9,9.13-.9,11.91v.21c0,2.07,.97,3.64,2.84,4.71,1.34,.71,2.84,1.14,4.41,1.36,.22,0,.52,.07,.67,.07,1.27,0,1.72-.57,1.94-2.07,.15-1.57,.07-3.07,.22-4.64,1.05-15.12,4.41-27.39,5.08-38.38v-.57c0-2.21-.82-4-2.76-5.28Zm13.37,33.24c-1.05,3.64-1.42,5.28-1.42,7.13,0,.86,.07,1.85,.22,3.14,.3,3.14,1.72,4.28,3.66,4.28,4.71,0,12.4-6.85,14.79-8.42,.22-.14,.52-.43,.82-.43,.07,0,.22,.07,.37,.21s.22,.29,.22,.5-.07,.5-.15,.71c-.67,2.85-4.26,9.99-10.08,12.27-1.12,.64-2.24,.93-3.44,.93-.97,0-1.94-.14-2.91-.43-4.41-1.21-7.02-4.21-8.74-8.06-1.27-2.78-1.79-5.49-1.79-8.13,0-4.49,1.57-8.85,3.88-13.13,1.72-3.14,4.26-5.49,7.17-7.56,2.84-2.07,5.53-2.92,7.84-2.92,5.53,0,9.11,4.78,9.11,9.7,0,5.21-4.11,10.56-14.49,10.56-1.49,0-3.21-.07-5.08-.36Zm4.03-5.92c0,.14,0,.21,.07,.29,.22,.36,.6,.5,1.05,.5,.37,0,.82-.14,1.2-.14,3.58-.29,7.02-2.5,9.04-5.28,.15-.36,.22-.64,.22-.86,0-.71-.52-1.14-1.49-1.14-.3,0-.6,.07-.9,.14s-.6,.14-.82,.21c-1.79,.43-8.37,4.57-8.37,6.28Zm54-25.61c-.82,4.42-2.76,13.05-8.07,42.87l-.52,4.49c-.15,1.21-.9,1.78-2.09,1.78-.15,0-.3,0-.52-.07-2.46-.36-4.11-2.07-4.56-4.64-.3-1.21-.52-2.5-.67-3.71-2.32,3.5-4.78,9.49-9.41,9.49-.75,0-1.49-.14-2.39-.43-4.03-1.5-6.95-4.28-7.84-8.56-.22-1-.3-2-.3-2.92,0-1.43,.15-2.78,.52-4.07,1.57-7.06,4.11-13.7,8.96-19.47,1.05-1.21,2.17-2.21,3.58-3.07,1.42-.93,3.44-1.43,5.45-1.43,2.17,0,4.33,.57,5.6,1.78l4.93-17.98c.37-1,.82-1.5,1.64-1.5,.22,0,.52,0,.9,.14,2.61,.71,4.86,3.71,4.86,6.42,0,.29,0,.57-.08,.86Zm-13.82,17.76c0-.64-.67-1.14-1.42-1.14-.22,0-.45,.07-.6,.14-2.76,1.5-5.75,7.2-7.1,9.84-2.17,4.49-3.51,9.27-4.41,14.12-.07,.29-.15,.64-.15,1s.08,.71,.3,1.14c5.9-6.71,11.43-16.34,13.29-24.9l.08-.21Zm19.57-5.14c-.6-.14-1.05-.29-1.42-.21-.97,.07-1.42,.78-1.34,2.14,.15,3-4.11,19.55-4.63,25.25-.15,1.5-.37,3.35-.22,5.06,.07,1.85,.6,3.57,2.02,4.71,1.87,1.5,3.14,2.07,4.03,2,1.79-.14,2.32-2.57,2.76-5.49,1.57-9.13,3.58-18.26,4.56-27.39v-.93c-.22-2.85-3.06-4.21-5.75-5.14Zm6.57-9.35c-.67-1.78-3.96-4.07-5.83-4.07h-.3c-.9,.07-1.34,.5-1.42,1.5-.15,2.21-.15,4.35-.15,5.99,.22,3.42,1.04,4.35,3.58,4.57h.45c.75-.07,1.34-.29,1.79-1.07,.9-1.64,1.57-3.28,2.09-5.06,0-.29,.08-.57,0-.86,0-.36-.07-.71-.22-1Zm34.58,19.76c.82,.78,1.12,1.5,1.12,2.43,0,.29,0,.57-.07,.86-1.79,7.49-5,15.05-5.38,22.9-.08,1-.22,2.21-1.42,2.64-.3,.14-.67,.14-.97,.14-.82,0-1.64-.36-2.32-.93-2.24-1.85-2.84-4.35-3.06-6.99v-4.21c-1.87,2.92-5.83,7.85-8.89,9.63-.82,.5-1.72,.71-2.54,.71-1.2,0-2.39-.43-3.51-1-4.03-2.21-5.98-5.64-5.98-10.06v-.21c.15-7.2,2.46-13.62,7.32-19.19,1.12-1.21,2.46-2.21,3.81-3.14,1.72-1.14,3.36-1.57,5-1.57,2.39,0,4.71,.93,7.02,2.14,2.99,1.5,7.77,3.85,9.86,5.85Zm-9.49,.36c0-.21-.07-.5-.37-.78-.67-.71-1.34-1-1.94-1-1.49,0-2.99,1.5-4.33,2.78-3.81,3.71-6.27,8.27-7.69,13.27-.37,1.14-.67,2.43-.67,3.78v.43c1.27-.21,12.4-15.12,14.49-17.41,.3-.36,.52-.64,.52-1.07Z"/></g><g><path class="cls-1" d="M57.22,7.72c-1.87,9.66-3.59,19.36-5.15,29.07-3.38,.53-5.07,.81-8.45,1.39-3.29-6.35-4.97-9.51-8.38-15.82-1.07,7.12-1.58,10.68-2.52,17.8-3.37,.65-5.05,.98-8.41,1.68-4.89-8.54-9.92-17.01-15.09-25.39,3.38-.76,5.07-1.12,8.46-1.83,3.8,6.51,5.67,9.78,9.34,16.34,1-7.49,1.53-11.23,2.67-18.72,3.03-.57,4.55-.85,7.58-1.38,3.6,6.69,5.36,10.05,8.82,16.8,1.21-7.51,1.85-11.27,3.21-18.78,3.16-.49,4.74-.72,7.91-1.17Z"/><path class="cls-1" d="M83.19,23.79c-6.42,.65-9.62,1.02-16.02,1.84,.93,2.1,2.99,3.12,5.82,2.78,2.14-.26,3.49-1.01,4.85-2.45,1.81,1.47,2.7,2.21,4.49,3.7-1.86,2.53-4.77,4.04-8.89,4.54-7.72,.93-13.38-3.05-14.3-9.46-.92-6.45,3.69-11.81,10.8-12.68,6.65-.81,12.47,2.72,13.19,9.84,.06,.56,.05,1.28,.07,1.88Zm-16.66-2.11c3.63-.47,5.45-.69,9.08-1.1-.67-2.22-2.56-3.45-4.99-3.16-2.43,.29-3.93,1.94-4.09,4.26Z"/><path class="cls-1" d="M84.94,2.76c3.2-.3,4.81-.45,8.01-.71,.81,9.86,1.61,19.72,2.42,29.58-3.05,.25-4.58,.38-7.63,.67-.94-9.85-1.87-19.69-2.81-29.54Z"/><path class="cls-1" d="M98.13,20.5c-.49-6.5,4.54-11.56,12.13-11.97,5.13-.28,9.15,1.77,10.82,5.47-2.39,1.29-3.57,1.94-5.94,3.25-1.16-1.99-2.78-2.79-4.6-2.69-2.73,.15-4.76,2.12-4.56,5.39,.21,3.35,2.43,5.05,5.11,4.91,1.79-.1,3.28-1.05,4.25-3.14,2.46,1.09,3.68,1.64,6.11,2.75-1.37,3.81-5.05,6.15-9.99,6.42-7.32,.4-12.84-3.82-13.34-10.39Z"/><path class="cls-1" d="M122.59,19.15c-.22-6.52,5-11.36,12.4-11.46,7.48-.1,12.75,4.6,12.7,11.12-.05,6.56-5.2,11.18-12.4,11.27-7.12,.1-12.47-4.38-12.7-10.94Zm17.22-.35c-.02-3.28-2.06-5.11-4.74-5.07-2.65,.04-4.68,1.92-4.61,5.2,.07,3.32,2.14,5.15,4.74,5.12,2.64-.04,4.62-1.92,4.6-5.24Z"/><path class="cls-1" d="M189.31,19.06c-.38,4.94-.57,7.42-.96,12.36-3.05-.24-4.58-.34-7.64-.54,.29-4.45,.43-6.68,.72-11.14,.2-3.11-1.04-4.52-3.1-4.64-2.27-.13-4,1.26-4.17,4.62-.22,4.3-.34,6.45-.56,10.74-3.06-.16-4.59-.23-7.64-.35,.17-4.46,.26-6.69,.43-11.15,.12-3.12-1.11-4.49-3.21-4.56-2.31-.08-4.01,1.36-4.1,4.72-.11,4.3-.17,6.45-.29,10.75-3.06-.08-4.59-.11-7.65-.15,.12-8.67,.18-13,.3-21.67,3.02,.04,4.53,.07,7.56,.15-.02,.91-.04,1.37-.06,2.28,1.75-1.71,4.16-2.52,6.83-2.42,3.09,.12,5.68,1.32,7.14,3.71,1.89-2.07,4.76-3.16,8.01-2.96,5.26,.33,8.91,3.55,8.39,10.25Z"/><path class="cls-1" d="M216.7,25.32c-6.4-.8-9.61-1.15-16.03-1.78,.44,2.25,2.21,3.71,5.05,4.01,2.15,.23,3.62-.21,5.27-1.31,1.43,1.84,2.14,2.76,3.55,4.61-2.37,2.05-5.55,2.88-9.68,2.44-7.73-.82-12.35-5.95-11.81-12.41,.55-6.5,6.23-10.69,13.34-9.95,6.66,.7,11.55,5.43,10.66,12.53-.07,.56-.24,1.26-.35,1.85Zm-15.77-5.77c3.64,.35,5.46,.54,9.1,.95-.16-2.31-1.73-3.94-4.16-4.19-2.43-.25-4.27,1.02-4.94,3.24Z"/><path class="cls-1" d="M245.93,37.87c-1.46,.59-3.48,.65-5.47,.31-5.53-.93-8.36-4.1-7.52-9.59,.44-2.88,.66-4.32,1.1-7.2-1.29-.2-1.94-.3-3.24-.49,.33-2.25,.5-3.37,.83-5.62,1.31,.19,1.96,.29,3.27,.49,.34-2.23,.51-3.34,.85-5.57,3.17,.49,4.75,.74,7.92,1.26-.37,2.23-.56,3.34-.93,5.56,2.05,.34,3.07,.52,5.11,.87-.39,2.24-.59,3.36-.98,5.59-2.03-.35-3.04-.53-5.07-.87-.47,2.84-.71,4.26-1.18,7.1-.26,1.58,.52,2.6,1.89,2.83,.84,.14,1.73,.05,2.45-.27,.39,2.23,.58,3.34,.96,5.57Z"/><path class="cls-1" d="M248.62,28.19c1.15-6.42,7.3-10.05,14.58-8.58,7.37,1.48,11.56,7.2,10.14,13.56-1.43,6.4-7.47,9.82-14.56,8.39-7.02-1.41-11.32-6.92-10.16-13.37Zm16.98,3.3c.67-3.21-.94-5.43-3.59-5.96-2.61-.53-5,.89-5.62,4.11-.63,3.26,1.02,5.49,3.58,6.01,2.6,.52,4.95-.9,5.63-4.15Z"/></g></g></svg>